# Aspose.3D Wavefront OBJ Exporter
# Copyright 2004-2022 Aspose Pty Ltd.
# File created: 06/20/2022 12:19:14

mtllib material.lib

#
# object node_id4_Material_52_0
#

v -14.22314385235012856 -4.69855295145484672 12.42229845142812472
v -13.56169731766185824 -0.21486360175602948 11.39186539660754608
v -10.72111953829027968 13.234796362470286 -3.86898928134436832
v -14.1732333389483447 -7.48796987864629136 11.15447613146250738
v -14.54413953412309016 -10.5271347090503724 6.2662303886328834
v -9.35696722474003196 -12.20964306689809752 6.86273443057777392
v -13.56169731766185824 -0.21486360175602948 11.39186539660754608
v -12.91813053218607792 3.46959283605307344 9.2096834779874186
v -10.72111953829027968 13.234796362470286 -3.86898928134436832
v -12.91813053218607792 3.46959283605307344 9.2096834779874186
v -12.06223026938497789 2.71535959322254648 10.7144198891279352
v -10.72111953829027968 13.234796362470286 -3.86898928134436832
v -14.54413953412309016 -10.5271347090503724 6.2662303886328834
v -12.56495312175365872 -9.29823936658845796 -18.16948259293810964
v -12.217952705877833 -9.4164343255040652 -18.05520806892943142
v -9.35696722474003196 -12.20964306689809752 6.86273443057777392
v -1.33740137291419848 -1.85639367857014256 11.7845071354297648
v -14.1732333389483447 -7.48796987864629136 11.15447613146250738
v -9.35696722474003196 -12.20964306689809752 6.86273443057777392
v -12.06223026938497789 2.71535959322254648 10.7144198891279352
v -9.526185371036572 14.02686867861840092 -4.45583775483973456
v -10.72111953829027968 13.234796362470286 -3.86898928134436832
v -12.06223026938497789 2.71535959322254648 10.7144198891279352
v 1.30848319312266704 14.2798559667605982 0.13907975069919142
v -9.526185371036572 14.02686867861840092 -4.45583775483973456
v -12.06223026938497789 2.71535959322254648 10.7144198891279352
v -4.84657170731667184 5.42126594427764544 10.09434863383953384
v 1.30848319312266704 14.2798559667605982 0.13907975069919142
v -12.91813053218607792 3.46959283605307344 9.2096834779874186
v -13.56169731766185824 -0.21486360175602948 11.39186539660754608
v -12.06223026938497789 2.71535959322254648 10.7144198891279352
v -10.72111953829027968 13.234796362470286 -3.86898928134436832
v -10.53409117302981456 12.92088771514236896 -6.90009775067671248
v -10.46895017592787088 6.14792747728567246 -19.6282137812310644
v -10.53409117302981456 12.92088771514236896 -6.90009775067671248
v -9.526185371036572 14.02686867861840092 -4.45583775483973456
v -10.46895017592787088 6.14792747728567246 -19.6282137812310644
v -9.526185371036572 14.02686867861840092 -4.45583775483973456
v 1.30848319312266704 14.2798559667605982 0.13907975069919142
v -9.38775666414174384 6.09734832900968638 -19.31440056040173304
v -10.46895017592787088 6.14792747728567246 -19.6282137812310644
v 1.30848319312266704 14.2798559667605982 0.13907975069919142
v 19.14319118125494868 4.7016294121386384 -11.02529062451645814
v -9.38775666414174384 6.09734832900968638 -19.31440056040173304
v 1.30848319312266704 14.2798559667605982 0.13907975069919142
v 20.35535150749297984 5.47811074714823224 -9.06683592508780123
v 20.63886630417582776 4.6191621048662892 -10.58951473516799168
v 19.14319118125494868 4.7016294121386384 -11.02529062451645814
v 20.35535150749297984 5.47811074714823224 -9.06683592508780123
v 19.28764343501661216 -2.86816531571288288 -3.28369500060756892
v 20.58780587112607208 2.37182906553788616 -10.30516445270083816
v 20.63886630417582776 4.6191621048662892 -10.58951473516799168
v 20.35535150749297984 5.47811074714823224 -9.06683592508780123
v -1.33740137291419848 -1.85639367857014256 11.7845071354297648
v 19.28764343501661216 -2.86816531571288288 -3.28369500060756892
v -1.33740137291419848 -1.85639367857014256 11.7845071354297648
v 9.29763969580124084 -6.23222381972340676 6.3023403294352942
v 19.28764343501661216 -2.86816531571288288 -3.28369500060756892
v 9.29763969580124084 -6.23222381972340676 6.3023403294352942
v -1.33740137291419848 -1.85639367857014256 11.7845071354297648
v -9.35696722474003196 -12.20964306689809752 6.86273443057777392
v 2.923308375464408 -15.62080901561298416 1.61762048090944432
v -13.56169731766185824 -0.21486360175602948 11.39186539660754608
v -14.22314385235012856 -4.69855295145484672 12.42229845142812472
v -1.33740137291419848 -1.85639367857014256 11.7845071354297648
v -14.22314385235012856 -4.69855295145484672 12.42229845142812472
v -13.83587909949302032 -5.2241957251185278 12.54464430022363784
v -1.33740137291419848 -1.85639367857014256 11.7845071354297648
v 2.923308375464408 -15.62080901561298416 1.61762048090944432
v -9.35696722474003196 -12.20964306689809752 6.86273443057777392
v 9.52473751514867392 -16.72405404184342 -10.90796295861730416
v 10.06019357067099484 -16.90324135844451088 -10.73205147147277568
v -13.83587909949302032 -5.2241957251185278 12.54464430022363784
v -14.1732333389483447 -7.48796987864629136 11.15447613146250738
v -1.33740137291419848 -1.85639367857014256 11.7845071354297648
v 20.35535150749297984 5.47811074714823224 -9.06683592508780123
v 1.30848319312266704 14.2798559667605982 0.13907975069919142
v -1.33740137291419848 -1.85639367857014256 11.7845071354297648
v -9.35696722474003196 -12.20964306689809752 6.86273443057777392
v -12.217952705877833 -9.4164343255040652 -18.05520806892943142
v 9.52473751514867392 -16.72405404184342 -10.90796295861730416
v 1.30848319312266704 14.2798559667605982 0.13907975069919142
v -4.84657170731667184 5.42126594427764544 10.09434863383953384
v -1.33740137291419848 -1.85639367857014256 11.7845071354297648
v -14.22314385235012856 -4.69855295145484672 12.42229845142812472
v -14.4736319613363644 -7.59772561703561952 10.80132563397127936
v -14.1732333389483447 -7.48796987864629136 11.15447613146250738
v -14.4736319613363644 -7.59772561703561952 10.80132563397127936
v -14.54413953412309016 -10.5271347090503724 6.2662303886328834
v -14.1732333389483447 -7.48796987864629136 11.15447613146250738
v -13.83587909949302032 -5.2241957251185278 12.54464430022363784
v -14.22314385235012856 -4.69855295145484672 12.42229845142812472
v -14.1732333389483447 -7.48796987864629136 11.15447613146250738
v 19.28764343501661216 -2.86816531571288288 -3.28369500060756892
v 9.29763969580124084 -6.23222381972340676 6.3023403294352942
v 2.923308375464408 -15.62080901561298416 1.61762048090944432
v 10.06019357067099484 -16.90324135844451088 -10.73205147147277568
v 20.3616567369086852 -5.83554540955939856 -9.277970095922619
v -14.4736319613363644 -7.59772561703561952 10.80132563397127936
v -14.22314385235012856 -4.69855295145484672 12.42229845142812472
v -14.54413953412309016 -10.5271347090503724 6.2662303886328834
v -14.22314385235012856 -4.69855295145484672 12.42229845142812472
v -10.72111953829027968 13.234796362470286 -3.86898928134436832
v -14.54413953412309016 -10.5271347090503724 6.2662303886328834
v -9.526185371036572 14.02686867861840092 -4.45583775483973456
v -10.53409117302981456 12.92088771514236896 -6.90009775067671248
v -10.72111953829027968 13.234796362470286 -3.86898928134436832
v 20.58780587112607208 2.37182906553788616 -10.30516445270083816
v 20.3616567369086852 -5.83554540955939856 -9.277970095922619
v 10.06019357067099484 -16.90324135844451088 -10.73205147147277568
v 9.52473751514867392 -16.72405404184342 -10.90796295861730416
v 20.63886630417582776 4.6191621048662892 -10.58951473516799168
v -12.217952705877833 -9.4164343255040652 -18.05520806892943142
v 19.14319118125494868 4.7016294121386384 -11.02529062451645814
v -12.56495312175365872 -9.29823936658845796 -18.16948259293810964
v -9.38775666414174384 6.09734832900968638 -19.31440056040173304
v -10.46895017592787088 6.14792747728567246 -19.6282137812310644
v 20.3616567369086852 -5.83554540955939856 -9.277970095922619
v 20.58780587112607208 2.37182906553788616 -10.30516445270083816
v 19.28764343501661216 -2.86816531571288288 -3.28369500060756892
v -14.54413953412309016 -10.5271347090503724 6.2662303886328834
v -10.72111953829027968 13.234796362470286 -3.86898928134436832
v -10.46895017592787088 6.14792747728567246 -19.6282137812310644
v -12.56495312175365872 -9.29823936658845796 -18.16948259293810964
v -12.06223026938497789 2.71535959322254648 10.7144198891279352
v -13.56169731766185824 -0.21486360175602948 11.39186539660754608
v -1.33740137291419848 -1.85639367857014256 11.7845071354297648
v -4.84657170731667184 5.42126594427764544 10.09434863383953384
# 128 vertices

vn -0.98907904567867328 0.12991524454081966 -0.06960559160862209
vn -0.98907904567867328 0.12991524454081966 -0.06960559160862209
vn -0.98907904567867328 0.12991524454081966 -0.06960559160862209
vn -0.31723512185704756 -0.79439775310640304 0.51797114776949648
vn -0.31723512185704756 -0.79439775310640304 0.51797114776949648
vn -0.31723512185704756 -0.79439775310640304 0.51797114776949648
vn -0.98883873017794848 0.13327732506374896 -0.06659750990126129
vn -0.98883873017794848 0.13327732506374896 -0.06659750990126129
vn -0.98883873017794848 0.13327732506374896 -0.06659750990126129
vn -0.26431753432254924 0.79354913883272784 0.548102277602482
vn -0.26431753432254924 0.79354913883272784 0.548102277602482
vn -0.26431753432254924 0.79354913883272784 0.548102277602482
vn -0.30021433502746548 -0.95113925555807424 -0.07214976203649337
vn -0.30021433502746548 -0.95113925555807424 -0.07214976203649337
vn -0.30021433502746548 -0.95113925555807424 -0.07214976203649337
vn -0.30021433502746548 -0.95113925555807424 -0.07214976203649337
vn 0.19743407525525076 -0.54143152822361752 0.81723411699776432
vn 0.19743407525525076 -0.54143152822361752 0.81723411699776432
vn 0.19743407525525076 -0.54143152822361752 0.81723411699776432
vn -0.25689836949534044 0.79485878443089232 0.54972982212352496
vn -0.25689836949534044 0.79485878443089232 0.54972982212352496
vn -0.25689836949534044 0.79485878443089232 0.54972982212352496
vn -0.25224039024642904 0.79548666829914656 0.55097705447559744
vn -0.25224039024642904 0.79548666829914656 0.55097705447559744
vn -0.25224039024642904 0.79548666829914656 0.55097705447559744
vn -0.250647936249901 0.79497870902951168 0.55243509368335128
vn -0.250647936249901 0.79497870902951168 0.55243509368335128
vn -0.250647936249901 0.79497870902951168 0.55243509368335128
vn -0.64540498551874904 0.46955629138638264 0.60246932601074456
vn -0.64540498551874904 0.46955629138638264 0.60246932601074456
vn -0.64540498551874904 0.46955629138638264 0.60246932601074456
vn -0.98863926296199872 0.13053419686439794 -0.07452086407119637
vn -0.98863926296199872 0.13053419686439794 -0.07452086407119637
vn -0.98863926296199872 0.13053419686439794 -0.07452086407119637
vn 0.16614424867268526 0.87087848298598416 -0.4625655098409092
vn 0.16614424867268526 0.87087848298598416 -0.4625655098409092
vn 0.16614424867268526 0.87087848298598416 -0.4625655098409092
vn 0.17564806134358008 0.8691935671413136 -0.46222339179979952
vn 0.17564806134358008 0.8691935671413136 -0.46222339179979952
vn 0.17564806134358008 0.8691935671413136 -0.46222339179979952
vn 0.17564806134358008 0.8691935671413136 -0.46222339179979952
vn 0.17691518121824412 0.86870048976345712 -0.462666720351242
vn 0.17691518121824412 0.86870048976345712 -0.462666720351242
vn 0.17691518121824412 0.86870048976345712 -0.462666720351242
vn 0.18125950046309592 0.8706105559869952 -0.45736472882869824
vn 0.18125950046309592 0.8706105559869952 -0.45736472882869824
vn 0.18125950046309592 0.8706105559869952 -0.45736472882869824
vn 0.18125950046309592 0.8706105559869952 -0.45736472882869824
vn 0.98318151854588576 0.00076870714541141 0.18262937565976
vn 0.98318151854588576 0.00076870714541141 0.18262937565976
vn 0.98318151854588576 0.00076870714541141 0.18262937565976
vn 0.98318151854588576 0.00076870714541141 0.18262937565976
vn 0.54661090168020368 0.42855645432806024 0.71941370980807528
vn 0.54661090168020368 0.42855645432806024 0.71941370980807528
vn 0.54661090168020368 0.42855645432806024 0.71941370980807528
vn 0.54692200920306512 0.42730020048192448 0.71992418327845528
vn 0.54692200920306512 0.42730020048192448 0.71992418327845528
vn 0.54692200920306512 0.42730020048192448 0.71992418327845528
vn 0.19818021470630664 -0.5419199905466132 0.81672971960806032
vn 0.19818021470630664 -0.5419199905466132 0.81672971960806032
vn 0.19818021470630664 -0.5419199905466132 0.81672971960806032
vn 0.19818021470630664 -0.5419199905466132 0.81672971960806032
vn -0.0012030012731663 0.22414773773832996 0.97455444607928416
vn -0.0012030012731663 0.22414773773832996 0.97455444607928416
vn -0.0012030012731663 0.22414773773832996 0.97455444607928416
vn -0.00154390611539206 0.2256158557497036 0.97421522599645136
vn -0.00154390611539206 0.2256158557497036 0.97421522599645136
vn -0.00154390611539206 0.2256158557497036 0.97421522599645136
vn -0.29526794054654632 -0.95272024374943952 -0.07170132605035573
vn -0.29526794054654632 -0.95272024374943952 -0.07170132605035573
vn -0.29526794054654632 -0.95272024374943952 -0.07170132605035573
vn -0.29526794054654632 -0.95272024374943952 -0.07170132605035573
vn 0.19398255472168264 -0.5341886267945808 0.82280816998538336
vn 0.19398255472168264 -0.5341886267945808 0.82280816998538336
vn 0.19398255472168264 -0.5341886267945808 0.82280816998538336
vn 0.5461059831667492 0.42951476320769696 0.71922556977436728
vn 0.5461059831667492 0.42951476320769696 0.71922556977436728
vn 0.5461059831667492 0.42951476320769696 0.71922556977436728
vn -0.296169440305041 -0.9523607116196832 -0.07275097243832931
vn -0.296169440305041 -0.9523607116196832 -0.07275097243832931
vn -0.296169440305041 -0.9523607116196832 -0.07275097243832931
vn 0.5451413679328836 0.4299941425588352 0.71967080902944504
vn 0.5451413679328836 0.4299941425588352 0.71967080902944504
vn 0.5451413679328836 0.4299941425588352 0.71967080902944504
vn -0.67176705762817232 -0.31643963290011024 0.6697723794992008
vn -0.67176705762817232 -0.31643963290011024 0.6697723794992008
vn -0.67176705762817232 -0.31643963290011024 0.6697723794992008
vn -0.31864105423631984 -0.79394870901577616 0.51779668216049472
vn -0.31864105423631984 -0.79394870901577616 0.51779668216049472
vn -0.31864105423631984 -0.79394870901577616 0.51779668216049472
vn -0.65409051829219768 -0.3226578671237752 0.68414731374949248
vn -0.65409051829219768 -0.3226578671237752 0.68414731374949248
vn -0.65409051829219768 -0.3226578671237752 0.68414731374949248
vn 0.63130124944014176 -0.64418554635329264 0.4318375687177216
vn 0.63130124944014176 -0.64418554635329264 0.4318375687177216
vn 0.63130124944014176 -0.64418554635329264 0.4318375687177216
vn 0.63130124944014176 -0.64418554635329264 0.4318375687177216
vn 0.63130124944014176 -0.64418554635329264 0.4318375687177216
vn -0.99074626790880032 0.12051150910686254 -0.06244054886859102
vn -0.99074626790880032 0.12051150910686254 -0.06244054886859102
vn -0.99074626790880032 0.12051150910686254 -0.06244054886859102
vn -0.98912508940133776 0.12902993148678842 -0.07058997505071646
vn -0.98912508940133776 0.12902993148678842 -0.07058997505071646
vn -0.98912508940133776 0.12902993148678842 -0.07058997505071646
vn -0.58855046983170432 0.7996356317919544 -0.11912732244959532
vn -0.58855046983170432 0.7996356317919544 -0.11912732244959532
vn -0.58855046983170432 0.7996356317919544 -0.11912732244959532
vn 0.27101016324310724 -0.12688743236423238 -0.95417664555728784
vn 0.27101016324310724 -0.12688743236423238 -0.95417664555728784
vn 0.27101016324310724 -0.12688743236423238 -0.95417664555728784
vn 0.27101016324310724 -0.12688743236423238 -0.95417664555728784
vn 0.27101016324310724 -0.12688743236423238 -0.95417664555728784
vn 0.27101016324310724 -0.12688743236423238 -0.95417664555728784
vn 0.27101016324310724 -0.12688743236423238 -0.95417664555728784
vn 0.27101016324310724 -0.12688743236423238 -0.95417664555728784
vn 0.27101016324310724 -0.12688743236423238 -0.95417664555728784
vn 0.27101016324310724 -0.12688743236423238 -0.95417664555728784
vn 0.98390277408572096 -0.00475308050572581 0.1786418217350969
vn 0.98390277408572096 -0.00475308050572581 0.1786418217350969
vn 0.98390277408572096 -0.00475308050572581 0.1786418217350969
vn -0.98910054350155312 0.12758402863977708 -0.07350224299531552
vn -0.98910054350155312 0.12758402863977708 -0.07350224299531552
vn -0.98910054350155312 0.12758402863977708 -0.07350224299531552
vn -0.98910054350155312 0.12758402863977708 -0.07350224299531552
vn -0.00096398456829049 0.22576086109373528 0.97418231175732
vn -0.00096398456829049 0.22576086109373528 0.97418231175732
vn -0.00096398456829049 0.22576086109373528 0.97418231175732
vn -0.00096398456829049 0.22576086109373528 0.97418231175732
# 128 vertex normals

vt 0.65588158369064328 0.50517034530639648 0
vt 0.59345114231109616 0.524865448474884 0
vt 0.41488716006278992 0.76802980899810784 0
vt 0.65821552276611328 0.50517028570175168 0
vt 0.67028558254241944 0.43551033735275272 0
vt 0.59495049715042112 0.41958540678024288 0
vt 0.59345114231109616 0.524865448474884 0
vt 0.54309415817260744 0.5612569451332092 0
vt 0.41488716006278992 0.76802980899810784 0
vt 0.20756763219833376 1 0
vt 0.22030515968799592 0.98444765806198128 0
vt 0.03055639192461967 0.99986708164215088 0
vt 0.67028558254241944 0.43551033735275272 0
vt 0.75217640399932864 0.07533955574035645 0
vt 0.74680316448211664 0.07534199953079224 0
vt 0.59495049715042112 0.41958540678024288 0
vt 0.25922170281410216 0.81262457370758064 0
vt 0.3637996017932892 0.9898141026496888 0
vt 0.40232068300247192 0.90878558158874512 0
vt 0.22030515968799592 0.98444765806198128 0
vt 0.01522185932844877 0.98443794250488288 0
vt 0.03055639192461967 0.99986708164215088 0
vt 0.22030515968799592 0.98444765806198128 0
vt 0 0.82104849815368656 0
vt 0.01522185932844877 0.98443794250488288 0
vt 0.22030515968799592 0.98444765806198128 0
vt 0.16467247903347016 0.8842657804489136 0
vt 0 0.82104849815368656 0
vt 0.20756763219833376 1 0
vt 0.26537281274795532 0.99895083904266352 0
vt 0.22030515968799592 0.98444765806198128 0
vt 0.41488716006278992 0.76802980899810784 0
vt 0.42145234346389768 0.81360888481140144 0
vt 0.52587634325027464 1 0
vt 0.79815095663070672 0.5561600923538208 0
vt 0.7648401856422424 0.58027243614196776 0
vt 0.99499005079269408 0.50833040475845336 0
vt 0.7648401856422424 0.58027243614196776 0
vt 0.74238151311874384 0.75646233558654784 0
vt 0.99497652053833008 0.52535706758499144 0
vt 0.99499005079269408 0.50833040475845336 0
vt 0.74238151311874384 0.75646233558654784 0
vt 0.99494248628616336 0.9747392535209656 0
vt 0.99497652053833008 0.52535706758499144 0
vt 0.74238151311874384 0.75646233558654784 0
vt 0.97025579214096064 1 0
vt 0.99499005079269408 0.99830883741378784 0
vt 0.99494248628616336 0.9747392535209656 0
vt 0.97741407155990608 0.16756850481033326 0
vt 0.90496307611465456 0.30052393674850464 0
vt 0.9985469579696656 0.21278280019760132 0
vt 0.9999998807907104 0.17858535051345826 0
vt 0.04383856058120727 0.52086967229843136 0
vt 0.25922170281410216 0.81262457370758064 0
vt 0.17644859850406646 0.51217979192733768 0
vt 0.25922170281410216 0.81262457370758064 0
vt 0.27540296316146852 0.64658403396606448 0
vt 0.17644859850406646 0.51217979192733768 0
vt 0.27540296316146852 0.64658403396606448 0
vt 0.25922170281410216 0.81262457370758064 0
vt 0.40232068300247192 0.90878558158874512 0
vt 0.40232068300247192 0.72055315971374512 0
vt 0.26537281274795532 0.99895083904266352 0
vt 0.33038440346717836 0.99684226512908928 0
vt 0.25922170281410216 0.81262457370758064 0
vt 0.33038440346717836 0.99684226512908928 0
vt 0.3368922472000122 0.9896761775016784 0
vt 0.25922170281410216 0.81262457370758064 0
vt 0.44674947857856752 0.28632771968841552 0
vt 0.59495049715042112 0.41958540678024288 0
vt 0.41059666872024536 0.07534080743789673 0
vt 0.40232068300247192 0.07533961534500122 0
vt 0.3368922472000122 0.9896761775016784 0
vt 0.3637996017932892 0.9898141026496888 0
vt 0.25922170281410216 0.81262457370758064 0
vt 0.04383856058120727 0.52086967229843136 0
vt 0 0.82104849815368656 0
vt 0.25922170281410216 0.81262457370758064 0
vt 0.59495049715042112 0.41958540678024288 0
vt 0.74680316448211664 0.07534199953079224 0
vt 0.41059666872024536 0.07534080743789673 0
vt 0 0.82104849815368656 0
vt 0.16467247903347016 0.8842657804489136 0
vt 0.25922170281410216 0.81262457370758064 0
vt 0.33038440346717836 0.99684226512908928 0
vt 0.36490154266357424 0.99422061443328864 0
vt 0.3637996017932892 0.9898141026496888 0
vt 0.6630200743675232 0.50143760442733768 0
vt 0.67028558254241944 0.43551033735275272 0
vt 0.65821552276611328 0.50517028570175168 0
vt 0.3368922472000122 0.9896761775016784 0
vt 0.33038440346717836 0.99684226512908928 0
vt 0.3637996017932892 0.9898141026496888 0
vt 0.90496307611465456 0.30052393674850464 0
vt 0.75217640399932864 0.36532467603683472 0
vt 0.81115764379501344 0.50263214111328128 0
vt 0.9999999403953552 0.50517028570175168 0
vt 0.99329537153244016 0.33767008781433104 0
vt 0.6978576183319092 0.52705180644989016 0
vt 0.65588158369064328 0.50517034530639648 0
vt 0.74238151311874384 0.59296095371246336 0
vt 0.65588158369064328 0.50517034530639648 0
vt 0.41488716006278992 0.76802980899810784 0
vt 0.74238151311874384 0.59296095371246336 0
vt 0.40232068300247192 0.77884668111801152 0
vt 0.42145234346389768 0.81360888481140144 0
vt 0.41488716006278992 0.76802980899810784 0
vt 0.27840426564216612 0.00686633586883544 0
vt 0.16278833150863648 0 0
vt 0 0.14757204055786132 0
vt 0.0021522850729525 0.15619999170303344 0
vt 0.31005460023880004 0.00891691446304321 0
vt 0.08999179303646088 0.50658583641052248 0
vt 0.31018543243408204 0.0324866771697998 0
vt 0.09141573309898376 0.51217979192733768 0
vt 0.31018543243408204 0.48186945915222168 0
vt 0.31015288829803468 0.49889606237411496 0
vt 0.99329537153244016 0.33767008781433104 0
vt 0.9985469579696656 0.21278280019760132 0
vt 0.90496307611465456 0.30052393674850464 0
vt 0.74238151311874384 0.59296095371246336 0
vt 0.41488716006278992 0.76802980899810784 0
vt 0.52587634325027464 1 0
vt 0.74238151311874384 0.96382218599319456 0
vt 0.22030515968799592 0.98444765806198128 0
vt 0.26537281274795532 0.99895083904266352 0
vt 0.25922170281410216 0.81262457370758064 0
vt 0.16467247903347016 0.8842657804489136 0
# 128 texture coords

g node_id4_Material_52_0
usemtl Material_52
s 1
f 1/1/1 2/2/2 3/3/3
f 4/4/4 5/5/5 6/6/6
f 7/7/7 8/8/8 9/9/9
f 10/10/10 11/11/11 12/12/12
f 13/13/13 14/14/14 15/15/15
f 15/15/15 16/16/16 13/13/13
f 17/17/17 18/18/18 19/19/19
f 20/20/20 21/21/21 22/22/22
f 23/23/23 24/24/24 25/25/25
f 26/26/26 27/27/27 28/28/28
f 29/29/29 30/30/30 31/31/31
f 32/32/32 33/33/33 34/34/34
f 35/35/35 36/36/36 37/37/37
f 38/38/38 39/39/39 40/40/40
f 40/40/40 41/41/41 38/38/38
f 42/42/42 43/43/43 44/44/44
f 45/45/45 46/46/46 47/47/47
f 47/47/47 48/48/48 45/45/45
f 49/49/49 50/50/50 51/51/51
f 51/51/51 52/52/52 49/49/49
f 53/53/53 54/54/54 55/55/55
f 56/56/56 57/57/57 58/58/58
f 59/59/59 60/60/60 61/61/61
f 61/61/61 62/62/62 59/59/59
f 63/63/63 64/64/64 65/65/65
f 66/66/66 67/67/67 68/68/68
f 69/69/69 70/70/70 71/71/71
f 71/71/71 72/72/72 69/69/69
f 73/73/73 74/74/74 75/75/75
f 76/76/76 77/77/77 78/78/78
f 79/79/79 80/80/80 81/81/81
f 82/82/82 83/83/83 84/84/84
f 85/85/85 86/86/86 87/87/87
f 88/88/88 89/89/89 90/90/90
f 91/91/91 92/92/92 93/93/93
f 94/94/94 95/95/95 96/96/96
f 96/96/96 97/97/97 94/94/94
f 94/94/94 97/97/97 98/98/98
f 99/99/99 100/100/100 101/101/101
f 102/102/102 103/103/103 104/104/104
f 105/105/105 106/106/106 107/107/107
f 108/108/108 109/109/109 110/110/110
f 110/110/110 111/111/111 108/108/108
f 108/108/108 111/111/111 112/112/112
f 111/111/111 113/113/113 112/112/112
f 112/112/112 113/113/113 114/114/114
f 113/113/113 115/115/115 114/114/114
f 114/114/114 115/115/115 116/116/116
f 115/115/115 117/117/117 116/116/116
f 118/118/118 119/119/119 120/120/120
f 121/121/121 122/122/122 123/123/123
f 123/123/123 124/124/124 121/121/121
f 125/125/125 126/126/126 127/127/127
f 127/127/127 128/128/128 125/125/125
#54 polygons

