# File produced by Open Asset Import Library (http://www.assimp.sf.net)
# (assimp v5.0.1588609223)

mtllib result.mtl

# 29 vertex positions
v  -0.25132874 -0.049287438 0.48831701
v  -0.24170303 0.015961356 0.47332165
v  -0.2003656 0.21168725 0.25123838
v  -0.25060242 -0.08988037 0.46986705
v  -0.25600001 -0.13410777 0.39873093
v  -0.18051378 -0.15859243 0.40741158
v  -0.23233755 0.069579333 0.44156548
v  -0.21988207 0.058603369 0.46346313
v  -0.22719795 -0.11622428 0.043130726
v  -0.22214822 -0.11794431 0.044793695
v  -0.063809231 -0.0079269763 0.47903556
v  -0.18297634 0.22321387 0.24269827
v  -0.025305048 0.22689545 0.30956572
v  -0.11487636 0.097981021 0.45443958
v  -0.19764386 0.20711911 0.20712823
v  -0.19669591 0.10855574 0.021902561
v  -0.18096185 0.10781969 0.02646935
v  0.23423415 0.087508529 0.14709644
v  0.25187412 0.098808251 0.1755968
v  0.25599995 0.08630842 0.15343806
v  0.23633632 -0.022650762 0.25975585
v  0.25525692 0.053604148 0.15757607
v  0.090957001 -0.071606159 0.39925644
v  -0.001805339 -0.20823336 0.33108214
v  -0.24569307 -0.056936845 0.49009743
v  0.094261825 -0.22428831 0.14880385
v  0.10205404 -0.22689594 0.15136379
v  -0.25497395 -0.091477588 0.46472782
v  0.25196588 -0.065833502 0.17252429

# 62 UV coordinates
vt 0.65588158 0.50517035 0
vt 0.59345114 0.52486545 0
vt 0.41488716 0.76802981 0
vt 0.65821552 0.50517029 0
vt 0.67028558 0.43551034 0
vt 0.5949505 0.41958541 0
vt 0.54309416 0.56125695 0
vt 0.20756763 1 0
vt 0.22030516 0.98444766 0
vt 0.030556392 0.99986708 0
vt 0.7521764 0.075339556 0
vt 0.74680316 0.075342 0
vt 0.2592217 0.81262457 0
vt 0.3637996 0.9898141 0
vt 0.40232068 0.90878558 0
vt 0.015221859 0.98443794 0
vt 0 0.8210485 0
vt 0.16467248 0.88426578 0
vt 0.26537281 0.99895084 0
vt 0.42145234 0.81360888 0
vt 0.52587634 1 0
vt 0.79815096 0.55616009 0
vt 0.76484019 0.58027244 0
vt 0.99499005 0.5083304 0
vt 0.74238151 0.75646234 0
vt 0.99497652 0.52535707 0
vt 0.99494249 0.97473925 0
vt 0.97025579 1 0
vt 0.99499005 0.99830884 0
vt 0.97741407 0.1675685 0
vt 0.90496308 0.30052394 0
vt 0.99854696 0.2127828 0
vt 0.99999988 0.17858535 0
vt 0.043838561 0.52086967 0
vt 0.1764486 0.51217979 0
vt 0.27540296 0.64658403 0
vt 0.40232068 0.72055316 0
vt 0.3303844 0.99684227 0
vt 0.33689225 0.98967618 0
vt 0.44674948 0.28632772 0
vt 0.41059667 0.075340807 0
vt 0.40232068 0.075339615 0
vt 0.36490154 0.99422061 0
vt 0.66302007 0.5014376 0
vt 0.7521764 0.36532468 0
vt 0.81115764 0.50263214 0
vt 0.99999994 0.50517029 0
vt 0.99329537 0.33767009 0
vt 0.69785762 0.52705181 0
vt 0.74238151 0.59296095 0
vt 0.40232068 0.77884668 0
vt 0.27840427 0.0068663359 0
vt 0.16278833 0 0
vt 0 0.14757204 0
vt 0.0021522851 0.15619999 0
vt 0.3100546 0.0089169145 0
vt 0.089991793 0.50658584 0
vt 0.31018543 0.032486677 0
vt 0.091415733 0.51217979 0
vt 0.31018543 0.48186946 0
vt 0.31015289 0.49889606 0
vt 0.74238151 0.96382219 0

# 37 vertex normals
vn -0.014393551 0.0018905887 -0.0010129338
vn -0.0046165576 -0.011560458 0.0075377645
vn -0.014390055 0.0019395156 -0.00096915883
vn -0.0038464756 0.011548107 0.007976247
vn -0.0043688626 -0.013841435 -0.0010499579
vn 0.0028731558 -0.0078791725 0.011892783
vn -0.0037385083 0.011567166 0.0079999324
vn -0.0036707232 0.011576304 0.008018082
vn -0.0036475488 0.011568912 0.0080393003
vn -0.0093922429 0.0068332087 0.0087674223
vn -0.014387152 0.0018995963 -0.0010844633
vn 0.0024178107 0.012673441 -0.0067314752
vn 0.0025561149 0.012648921 -0.0067264964
vn 0.0025745546 0.012641747 -0.0067329481
vn 0.0026377751 0.012669541 -0.0066557904
vn 0.014307729 1.1186595e-05 0.0026577103
vn 0.0079545425 0.0062365578 0.010469252
vn 0.0079590715 0.0062182778 0.010476682
vn 0.0028840136 -0.0078862803 0.011885443
vn -1.7506651e-05 0.0032619054 0.014182183
vn -2.2467662e-05 0.0032832702 0.014177247
vn -0.0042968807 -0.013864442 -0.001043432
vn 0.0028229274 -0.00777377 0.0119739
vn 0.0079471963 0.0062505049 0.010466516
vn -0.0043100002 -0.013859211 -0.0010587071
vn 0.0079331584 0.0062574809 0.010472995
vn -0.0097758761 -0.0046049813 0.0097468486
vn -0.0046370178 -0.011553923 0.0075352257
vn -0.0095186392 -0.0046954718 0.0099560395
vn 0.0091869989 -0.0093744975 0.0062843077
vn -0.014417815 0.0017537413 -0.00090866478
vn -0.014394223 0.0018777055 -0.0010272592
vn -0.008564868 0.011636682 -0.001733598
vn 0.0039438698 -0.0018465266 -0.013885637
vn 0.014318225 -6.9169109e-05 0.0025996815
vn -0.014393865 0.001856664 -0.0010696399
vn -1.4028366e-05 0.0032853803 0.014176768

# Mesh 'mesh_id4' with 54 faces
g mesh_id4
usemtl 50
f  1/1/1 2/2/1 3/3/1
f  4/4/2 5/5/2 6/6/2
f  2/2/3 7/7/3 3/3/3
f  7/8/4 8/9/4 3/10/4
f  5/5/5 9/11/5 10/12/5
f  10/12/5 6/6/5 5/5/5
f  11/13/6 4/14/6 6/15/6
f  8/9/7 12/16/7 3/10/7
f  8/9/8 13/17/8 12/16/8
f  8/9/9 14/18/9 13/17/9
f  7/8/10 2/19/10 8/9/10
f  3/3/11 15/20/11 16/21/11
f  15/22/12 12/23/12 16/24/12
f  12/23/13 13/25/13 17/26/13
f  17/26/13 16/24/13 12/23/13
f  13/25/14 18/27/14 17/26/14
f  13/25/15 19/28/15 20/29/15
f  20/29/15 18/27/15 13/25/15
f  19/30/16 21/31/16 22/32/16
f  22/32/16 20/33/16 19/30/16
f  19/34/17 11/13/17 21/35/17
f  11/13/18 23/36/18 21/35/18
f  23/36/19 11/13/19 6/15/19
f  6/15/19 24/37/19 23/36/19
f  2/19/20 1/38/20 11/13/20
f  1/38/21 25/39/21 11/13/21
f  24/40/22 6/6/22 26/41/22
f  26/41/22 27/42/22 24/40/22
f  25/39/23 4/14/23 11/13/23
f  19/34/24 13/17/24 11/13/24
f  6/6/25 10/12/25 26/41/25
f  13/17/26 14/18/26 11/13/26
f  1/38/27 28/43/27 4/14/27
f  28/44/28 5/5/28 4/4/28
f  25/39/29 1/38/29 4/14/29
f  21/31/30 23/45/30 24/46/30
f  24/46/30 27/47/30 21/31/30
f  21/31/30 27/47/30 29/48/30
f  28/49/31 1/1/31 5/50/31
f  1/1/32 3/3/32 5/50/32
f  12/51/33 15/20/33 3/3/33
f  22/52/34 29/53/34 27/54/34
f  27/54/34 26/55/34 22/52/34
f  22/52/34 26/55/34 20/56/34
f  26/55/34 10/57/34 20/56/34
f  20/56/34 10/57/34 18/58/34
f  10/57/34 9/59/34 18/58/34
f  18/58/34 9/59/34 17/60/34
f  9/59/34 16/61/34 17/60/34
f  29/48/35 22/32/35 21/31/35
f  5/50/36 3/3/36 16/21/36
f  16/21/36 9/62/36 5/50/36
f  8/9/37 2/19/37 11/13/37
f  11/13/37 14/18/37 8/9/37

